<svg fill="#fff" height="512pt" viewBox="0 -84 512 512" width="512pt" xmlns="http://www.w3.org/2000/svg"><path d="m263.539062 71.640625c0 4.164063-3.375 7.539063-7.539062 7.539063s-7.539062-3.375-7.539062-7.539063 3.375-7.539063 7.539062-7.539063 7.539062 3.375 7.539062 7.539063zm0 0"/><path d="m226.898438 23.09375c17.953124-10.785156 40.25-10.785156 58.203124 0 1.207032.726562 2.539063 1.070312 3.851563 1.070312 2.546875 0 5.03125-1.296874 6.4375-3.636718 2.132813-3.550782.984375-8.160156-2.566406-10.292969-22.714844-13.644531-50.933594-13.644531-73.648438 0-3.550781 2.132813-4.699219 6.742187-2.566406 10.292969 2.132813 3.550781 6.738281 4.699218 10.289063 2.566406zm0 0"/><path d="m278.878906 48.050781c2.128906-3.554687.980469-8.160156-2.570312-10.292969-12.527344-7.519531-28.089844-7.519531-40.617188 0-3.550781 2.132813-4.699218 6.738282-2.570312 10.292969 2.132812 3.550781 6.738281 4.703125 10.292968 2.570313 7.765626-4.660156 17.410157-4.660156 25.171876 0 1.210937.722656 2.539062 1.070312 3.855468 1.070312 2.546875 0 5.03125-1.300781 6.4375-3.640625zm0 0"/><path d="m496.484375 24.09375h-16.03125c-8.558594 0-15.515625 6.957031-15.515625 15.515625v24.5625h-17.066406v-16.546875c0-2.488281-1.234375-4.816406-3.292969-6.210938-2.0625-1.394531-4.679687-1.679687-6.992187-.753906l-160.320313 64.128906c-2.847656 1.140626-4.714844 3.898438-4.714844 6.964844v224.453125c0 2.488281 1.234375 4.8125 3.292969 6.207031 1.261719.855469 2.726562 1.292969 4.207031 1.292969.941407 0 1.886719-.179687 2.785157-.539062l160.320312-64.128907c2.847656-1.140624 4.714844-3.894531 4.714844-6.960937v-16.550781h17.066406v32.582031c0 4.140625 3.355469 7.5 7.5 7.5h32.0625c4.140625 0 7.5-3.359375 7.5-7.5v-248.5c0-8.558594-6.960938-15.515625-15.515625-15.515625zm-16.546875 15.515625c0-.285156.230469-.515625.515625-.515625h16.03125c.285156 0 .515625.230469.515625.515625v24.5625h-17.0625zm-128.261719 51.570313 17.066407-6.828126v208.296876l-17.066407 6.828124zm-15 214.296874-17.0625 6.824219v-208.296875l17.0625-6.824218zm-49.128906-188.644531 17.066406-6.828125v208.296875l-17.066406 6.824219zm145.324219 150.167969-17.0625 6.824219v-146.039063c0-4.144531-3.359375-7.5-7.5-7.5-4.144532 0-7.5 3.355469-7.5 7.5v152.039063l-17.066406 6.824219v-208.296876l17.066406-6.824218v24.191406c0 4.140625 3.355468 7.5 7.5 7.5 4.140625 0 7.5-3.359375 7.5-7.5v-30.191406l17.0625-6.824219zm15-26.472656v-161.355469h17.0625v161.355469zm32.066406 40.082031v-201.4375h17.0625v201.4375zm0 0"/><path d="m234.738281 104.789062-160.324219-64.128906c-2.308593-.925781-4.929687-.644531-6.988281.753906-2.0625 1.394532-3.296875 3.722657-3.296875 6.210938v16.546875h-17.066406v-24.566406c0-8.554688-6.957031-15.515625-15.515625-15.515625h-16.03125c-8.554687.003906-15.515625 6.960937-15.515625 15.519531v248.5c0 4.140625 3.359375 7.5 7.5 7.5h32.0625c4.144531 0 7.5-3.359375 7.5-7.5v-32.582031h17.066406v16.546875c0 3.066406 1.867188 5.824219 4.714844 6.964843l160.320312 64.128907c.898438.359375 1.84375.535156 2.785157.535156 1.480469 0 2.945312-.4375 4.207031-1.289063 2.058594-1.394531 3.292969-3.722656 3.292969-6.210937v-224.449219c.003906-3.066406-1.863281-5.824218-4.710938-6.964844zm-59.414062-7.609374 17.0625 6.824218v208.296875l-17.0625-6.824219zm-15 202.296874-17.066407-6.828124v-208.296876l17.066407 6.828126zm-144.808594-260.382812h16.03125c.285156 0 .515625.230469.515625.515625v24.5625h-17.0625v-24.5625c0-.285156.230469-.515625.515625-.515625zm16.546875 241.515625h-17.0625v-201.4375h17.0625zm15-40.082031v-161.355469h17.066406v161.355469zm32.066406-181.824219 17.0625 6.824219v150.4375c0 4.140625 3.359375 7.5 7.5 7.5 4.144532 0 7.5-3.359375 7.5-7.5v-144.4375l17.066406 6.824218v208.296876l-17.066406-6.824219v-31.800781c0-4.140626-3.355468-7.5-7.5-7.5-4.140625 0-7.5 3.359374-7.5 7.5v25.800781l-17.0625-6.828125zm145.324219 266.425781-17.066406-6.828125v-208.296875l17.066406 6.828125zm0 0"/></svg>