<svg width="216" height="146" viewBox="0 0 216 146" fill="none" xmlns="http://www.w3.org/2000/svg">
<path d="M211.594 0H197.719C196.799 0 195.916 0.365457 195.266 1.01597C194.615 1.66649 194.25 2.54878 194.25 3.46875V13.875H20.8125V3.46875C20.8125 2.54878 20.447 1.66649 19.7965 1.01597C19.146 0.365457 18.2637 0 17.3438 0H3.46875C2.54878 0 1.66649 0.365457 1.01597 1.01597C0.365456 1.66649 0 2.54878 0 3.46875V142.219C0 143.139 0.365456 144.021 1.01597 144.672C1.66649 145.322 2.54878 145.688 3.46875 145.688H211.594C212.514 145.688 213.396 145.322 214.047 144.672C214.697 144.021 215.062 143.139 215.062 142.219V3.46875C215.062 2.54878 214.697 1.66649 214.047 1.01597C213.396 0.365457 212.514 0 211.594 0ZM13.875 138.75H6.9375V6.9375H13.875V138.75ZM97.125 138.75H20.8125V20.8125H97.125V138.75ZM111 138.75H104.062V20.8125H111V138.75ZM194.25 138.75H117.938V20.8125H194.25V138.75ZM208.125 138.75H201.188V6.9375H208.125V138.75Z" fill="white"/>
<path d="M90.1875 65.9062C89.2675 65.9062 88.3852 66.2717 87.7347 66.9222C87.0842 67.5727 86.7188 68.455 86.7188 69.375V90.1875C86.7188 91.1075 87.0842 91.9898 87.7347 92.6403C88.3852 93.2908 89.2675 93.6562 90.1875 93.6562C91.1075 93.6562 91.9898 93.2908 92.6403 92.6403C93.2908 91.9898 93.6562 91.1075 93.6562 90.1875V69.375C93.6562 68.455 93.2908 67.5727 92.6403 66.9222C91.9898 66.2717 91.1075 65.9062 90.1875 65.9062Z" fill="white"/>
<path d="M82.2341 66.9222C81.912 66.6 81.5296 66.3445 81.1087 66.1702C80.6879 65.9958 80.2368 65.9061 79.7812 65.9061C79.3257 65.9061 78.8746 65.9958 78.4538 66.1702C78.0329 66.3445 77.6505 66.6 77.3284 66.9222L66.9222 77.3284C66.6 77.6505 66.3445 78.0329 66.1702 78.4538C65.9959 78.8746 65.9061 79.3257 65.9061 79.7812C65.9061 80.2368 65.9959 80.6879 66.1702 81.1087C66.3445 81.5296 66.6 81.912 66.9222 82.2341L77.3284 92.6403C77.9789 93.2909 78.8613 93.6563 79.7812 93.6563C80.7012 93.6563 81.5835 93.2909 82.2341 92.6403C82.8846 91.9898 83.2501 91.1075 83.2501 90.1875C83.2501 89.2675 82.8846 88.3852 82.2341 87.7347L74.2803 79.7812L82.2341 71.8278C82.5562 71.5057 82.8117 71.1233 82.9861 70.7025C83.1604 70.2816 83.2501 69.8305 83.2501 69.375C83.2501 68.9195 83.1604 68.4684 82.9861 68.0475C82.8117 67.6267 82.5562 67.2443 82.2341 66.9222Z" fill="white"/>
<path d="M124.875 93.6562C125.795 93.6562 126.677 93.2908 127.328 92.6403C127.978 91.9898 128.344 91.1075 128.344 90.1875V69.375C128.344 68.455 127.978 67.5727 127.328 66.9222C126.677 66.2717 125.795 65.9062 124.875 65.9062C123.955 65.9062 123.073 66.2717 122.422 66.9222C121.772 67.5727 121.406 68.455 121.406 69.375V90.1875C121.406 91.1075 121.772 91.9898 122.422 92.6403C123.073 93.2908 123.955 93.6562 124.875 93.6562Z" fill="white"/>
<path d="M132.828 92.6404C133.151 92.9625 133.533 93.218 133.954 93.3923C134.375 93.5667 134.826 93.6564 135.281 93.6564C135.737 93.6564 136.188 93.5667 136.609 93.3923C137.03 93.218 137.412 92.9625 137.734 92.6404L148.14 82.2341C148.462 81.912 148.718 81.5296 148.892 81.1087C149.067 80.6879 149.156 80.2368 149.156 79.7812C149.156 79.3257 149.067 78.8746 148.892 78.4538C148.718 78.0329 148.462 77.6505 148.14 77.3284L137.734 66.9222C137.084 66.2716 136.201 65.9062 135.281 65.9062C134.361 65.9062 133.479 66.2716 132.828 66.9222C132.178 67.5727 131.812 68.455 131.812 69.375C131.812 70.295 132.178 71.1773 132.828 71.8278L140.782 79.7812L132.828 87.7347C132.506 88.0568 132.251 88.4392 132.076 88.86C131.902 89.2809 131.812 89.732 131.812 90.1875C131.812 90.643 131.902 91.0941 132.076 91.515C132.251 91.9358 132.506 92.3182 132.828 92.6404Z" fill="white"/>
</svg>
